<?xml version="1.0" standalone="no"?>
<!DOCTYPE svg PUBLIC "-//W3C//DTD SVG 20010904//EN"
 "http://www.w3.org/TR/2001/REC-SVG-20010904/DTD/svg10.dtd">
<svg version="1.0" xmlns="http://www.w3.org/2000/svg"
 width="55.000000pt" height="105.000000pt" viewBox="0 0 55.000000 105.000000"
 preserveAspectRatio="xMidYMid meet">

<g transform="translate(0.000000,105.000000) scale(0.100000,-0.100000)"
fill="#fff" stroke="none">
<path d="M328 1037 c-58 -17 -90 -38 -121 -79 -35 -47 -47 -99 -47 -210 l0
-98 -80 0 -80 0 0 -100 0 -100 80 0 80 0 0 -220 0 -220 100 0 100 0 0 220 0
219 67 3 67 3 23 90 c12 50 23 93 23 98 0 4 -40 7 -90 7 l-90 0 0 73 c0 39 3
82 6 95 9 32 54 52 119 52 l55 0 0 85 c0 83 -1 85 -24 85 -12 0 -50 2 -82 5
-34 3 -79 -1 -106 -8z"/>
</g>
</svg>
