<?xml version="1.0" standalone="no"?>
<!DOCTYPE svg PUBLIC "-//W3C//DTD SVG 20010904//EN"
 "http://www.w3.org/TR/2001/REC-SVG-20010904/DTD/svg10.dtd">
<svg version="1.0" xmlns="http://www.w3.org/2000/svg"
 width="87.000000pt" height="87.000000pt" viewBox="0 0 87.000000 87.000000"
 preserveAspectRatio="xMidYMid meet">

<g transform="translate(0.000000,87.000000) scale(0.100000,-0.100000)"
fill="#fff" stroke="none">
<path d="M234 860 c-82 -9 -105 -19 -156 -68 -64 -61 -73 -103 -73 -363 l0
-226 30 -59 c59 -114 140 -139 444 -132 176 3 189 5 243 30 119 55 142 131
137 442 -4 191 -4 193 -34 251 -42 82 -92 112 -206 125 -95 11 -279 11 -385 0z
m439 -86 c41 -10 84 -55 97 -103 7 -29 10 -116 8 -255 -3 -237 -9 -260 -78
-301 -33 -19 -52 -20 -270 -20 -267 0 -284 4 -324 80 -20 37 -21 56 -21 265 0
219 1 226 24 266 28 50 50 63 122 74 59 10 397 5 442 -6z"/>
<path d="M632 704 c-24 -17 -29 -53 -10 -72 19 -19 66 -15 78 7 14 28 13 38
-10 61 -24 24 -29 24 -58 4z"/>
<path d="M365 639 c-45 -13 -105 -67 -126 -113 -36 -79 -17 -176 47 -240 40
-39 83 -56 147 -56 180 0 273 211 154 347 -55 63 -140 87 -222 62z m157 -106
c56 -56 52 -151 -9 -200 -35 -28 -111 -31 -154 -6 -54 32 -75 114 -44 174 39
74 147 91 207 32z"/>
</g>
</svg>
