<?xml version="1.0" standalone="no"?>
<!DOCTYPE svg PUBLIC "-//W3C//DTD SVG 20010904//EN"
 "http://www.w3.org/TR/2001/REC-SVG-20010904/DTD/svg10.dtd">
<svg version="1.0" xmlns="http://www.w3.org/2000/svg"
 width="109.000000pt" height="70.000000pt" viewBox="0 0 109.000000 70.000000"
 preserveAspectRatio="xMidYMid meet">

<g transform="translate(0.000000,70.000000) scale(0.100000,-0.100000)"
fill="#fff" stroke="none">
<path d="M472 689 c-80 -10 -152 -33 -219 -70 -48 -26 -61 -29 -150 -29 l-97
0 43 -44 43 -44 -25 -34 c-63 -82 -78 -198 -37 -283 29 -60 107 -129 164 -145
72 -20 156 -9 214 27 l50 31 43 -44 43 -44 47 46 c32 31 49 42 54 34 17 -27
110 -60 170 -60 222 1 345 257 209 436 l-27 35 44 45 43 44 -97 0 c-89 0 -102
3 -150 29 -104 58 -242 85 -365 70z m241 -100 c20 -7 37 -15 37 -19 0 -3 -16
-14 -35 -23 -83 -40 -164 -147 -166 -222 0 -23 -3 -18 -15 24 -24 91 -81 161
-160 199 -19 8 -34 19 -34 23 0 3 24 14 53 23 62 18 259 16 320 -5z m-354
-129 c172 -87 107 -349 -86 -350 -106 0 -186 79 -186 185 0 75 47 148 113 174
42 17 118 13 159 -9z m568 -16 c49 -39 73 -87 73 -146 0 -112 -74 -188 -185
-188 -192 0 -256 258 -87 350 57 31 149 24 199 -16z"/>
<path d="M223 371 c-58 -36 -54 -125 7 -156 40 -21 83 -12 110 22 63 80 -31
188 -117 134z"/>
<path d="M758 361 c-44 -39 -44 -93 1 -133 17 -16 41 -28 52 -28 46 0 99 51
99 95 0 28 -25 67 -51 81 -41 21 -65 17 -101 -15z"/>
</g>
</svg>
